<?xml version="1.0" encoding="UTF-8"?>
<svg width="200" height="200" version="1.1" viewBox="0 100 1000 800" xmlns="http://www.w3.org/2000/svg" xmlns:xlink="http://www.w3.org/1999/xlink" fill="red">
 <g>
  <path d="m351.12 155.06 29.453 2.1836 2.5234-14.504-31.977-3.0781z"/>
  <path d="m414.01 151.37-4.7617 13.105c9.3516 3.2461 18.367 7.3359 27.047 12.152l6.6094-11.48c-9.2383-5.4336-18.926-10.023-28.895-13.777z"/>
  <path d="m468.89 183.73-8.0078 9.5781 21.395 20.719 8.957-7.6172z"/>
  <path d="m509.32 232.57-9.5195 5.6016c5.1523 8.5117 9.5742 17.527 13.16 26.824l9.6875-3.5859c-3.5859-9.9648-8.0625-19.598-13.328-28.84z"/>
  <path d="m521.25 293.78 3.1953 29.848 8.8477-0.058594-2.6328-31.469z"/>
  <path d="m515.31 382.98 7 2.4648c3.5859-9.8555 6.3281-20.047 8.1758-30.406l-8.0078-1.3438c-1.5117 9.9102-3.9219 19.707-7.168 29.285z"/>
  <path d="m486.36 435.85 4.5938 3.7539c6.7188-8.0078 12.77-16.633 18.031-25.703l-5.8242-3.2461c-4.8164 8.8438-10.473 17.242-16.801 25.195z"/>
  <path d="m441 475.89 2.2969 3.8672 25.535-18.035-3.3594-3.918z"/>
  <path d="m384.5 498.23 0.55859 2.9688c10.191-1.8477 20.273-4.5938 30.016-8.1758l-1.3438-3.5273c-9.4062 3.75-19.262 6.6641-29.23 8.7344z"/>
  <path d="m338.86 500.98-15.344-1.0078-0.22266 1.5117 15.457 1.3984c5.1523 0.33594 10.305 1.1758 15.457 1.1211l-0.054687-2.2969c-5.1016 0.16797-10.195-0.50391-15.293-0.72656z"/>
  <path d="m265.27 480.87c8.9609 5.0977 18.367 9.4062 28.055 12.824l0.28125-0.78516c-9.7422-3.1914-19.266-7.2812-28.281-12.152z"/>
  <path d="m320.6 144.87v0l15.176-27.777-12.602-1.1211-10.305 18.871-57.289-7.2227 15.398-70.672-10.469-0.94922-33.543 67.984-39.648-4.9844-3.4727-0.44922c-3.2461-0.39062-6.5508 0.55859-9.0703 2.6875l-5.1523 4.3125c-3.4727 2.9102-3.9219 8.1211-1.0625 11.594l4.3125 5.1523c2.1289 2.5195 5.1523 4.0312 8.457 4.2578l3.4727 0.16797 39.93 2.1289 20.945 72.855 10.414 0.95312-2.5742-72.297 57.625 3.0781 6.832 20.383 12.602 1.1211z"/>
  <path d="m238.11 402.14c-12.77 0-23.129 10.359-23.129 23.129s23.129 46.199 23.129 46.199 23.129-33.434 23.129-46.199c-0.003907-12.77-10.363-23.129-23.129-23.129zm0 34.605c-6.7188 0-12.098-5.375-12.098-12.098 0-6.7188 5.375-12.098 12.098-12.098 6.7188 0 12.098 5.375 12.098 12.098-0.003907 6.7227-5.3789 12.098-12.098 12.098z"/>
 </g>
</svg>
